<?xml version="1.0" encoding="UTF-8" standalone="no"?>
<svg
   xmlns:dc="http://purl.org/dc/elements/1.1/"
   xmlns:cc="http://creativecommons.org/ns#"
   xmlns:rdf="http://www.w3.org/1999/02/22-rdf-syntax-ns#"
   xmlns:svg="http://www.w3.org/2000/svg"
   xmlns="http://www.w3.org/2000/svg"
   viewBox="0 0 100 99.999995"
   height="100"
   width="100"
   xml:space="preserve"
   version="1.1"
   id="svg2"><metadata
     id="metadata8"><rdf:RDF><cc:Work
         rdf:about=""><dc:format>image/svg+xml</dc:format><dc:type
           rdf:resource="http://purl.org/dc/dcmitype/StillImage" /><dc:title></dc:title></cc:Work></rdf:RDF></metadata><defs
     id="defs6"><clipPath
       id="clipPath16"
       clipPathUnits="userSpaceOnUse"><path
         id="path18"
         d="m 0,841.89 595.28,0 L 595.28,0 0,0 0,841.89 Z" /></clipPath></defs><g
     transform="matrix(1.25,0,0,-1.25,0,99.999951)"
     id="g10"><g
       style="fill:#ff0000"
       id="g12"><g
         transform="matrix(0.14698996,0,0,0.14698996,-3.750099,-26.048196)"
         style="fill:#ffffff"
         clip-path="url(#clipPath16)"
         id="g14"><g
           style="fill:#ffffff"
           transform="translate(100.9658,445.7632)"
           id="g20"><path
             id="path22"
             style="fill:#ffffff;fill-opacity:1;fill-rule:nonzero;stroke:none"
             d="m 0,0 c -0.925,0 -1.687,-0.74 -1.811,-1.76 0,-0.004 -4.281,-39.099 -4.281,-39.099 l 4.281,-38.238 c 0.124,-1.023 0.886,-1.764 1.811,-1.764 0.918,0 1.66,0.722 1.807,1.756 L 6.68,-40.859 1.809,-1.758 C 1.66,-0.72 0.918,0 0,0" /></g><g
           style="fill:#ffffff"
           transform="translate(84.8681,430.7875)"
           id="g24"><path
             id="path26"
             style="fill:#ffffff;fill-opacity:1;fill-rule:nonzero;stroke:none"
             d="m 0,0 c -0.908,0 -1.626,-0.702 -1.746,-1.703 l -3.184,-24.181 3.184,-23.768 c 0.12,-1.001 0.838,-1.701 1.746,-1.701 0.883,0 1.598,0.694 1.742,1.692 l 3.771,23.777 -3.771,24.19 C 1.6,-0.697 0.883,0 0,0" /></g><g
           style="fill:#ffffff"
           transform="translate(118.0713,453.4297)"
           id="g28"><path
             id="path30"
             style="fill:#ffffff;fill-opacity:1;fill-rule:nonzero;stroke:none"
             d="m 0,0 c -1.15,0 -2.068,-0.898 -2.184,-2.137 0,-0.003 -4.062,-46.393 -4.062,-46.393 l 4.062,-44.699 c 0.116,-1.243 1.034,-2.14 2.184,-2.14 1.129,0 2.045,0.897 2.179,2.131 L 6.797,-48.53 2.182,-2.135 C 2.045,-0.896 1.129,0 0,0" /></g><g
           style="fill:#ffffff"
           transform="translate(135.3174,455.0692)"
           id="g32"><path
             id="path34"
             style="fill:#ffffff;fill-opacity:1;fill-rule:nonzero;stroke:none"
             d="m 0,0 c -1.35,0 -2.449,-1.08 -2.557,-2.511 l -3.841,-47.668 3.841,-46.116 C -2.449,-97.721 -1.35,-98.8 0,-98.8 c 1.332,0 2.43,1.079 2.551,2.505 L 6.914,-50.179 2.551,-2.502 C 2.43,-1.077 1.332,0 0,0" /></g><g
           style="fill:#ffffff"
           transform="translate(155.626,358.395)"
           id="g36"><path
             id="path38"
             style="fill:#ffffff;fill-opacity:1;fill-rule:nonzero;stroke:none"
             d="m 0,0 c 0,-0.001 -0.001,-0.002 -0.001,-0.003 l 0,-0.006 L 0,0 Z" /></g><g
           style="fill:#ffffff"
           transform="translate(155.625,449.1224)"
           id="g40"><path
             id="path42"
             style="fill:#ffffff;fill-opacity:1;fill-rule:nonzero;stroke:none"
             d="m 0,0 c -0.112,1.63 -1.37,2.869 -2.925,2.869 -1.569,0 -2.826,-1.241 -2.924,-2.887 l -3.625,-44.218 3.625,-46.496 c 0.098,-1.638 1.355,-2.881 2.924,-2.881 1.554,0 2.811,1.242 2.925,2.883 L 4.107,-44.236 0,0 Z" /></g><g
           style="fill:#ffffff"
           transform="translate(170.2275,480.0727)"
           id="g44"><path
             id="path46"
             style="fill:#ffffff;fill-opacity:1;fill-rule:nonzero;stroke:none"
             d="m 0,0 c -1.759,0 -3.208,-1.434 -3.297,-3.263 0,-0.002 -3.404,-71.942 -3.404,-71.942 l 3.404,-46.491 c 0.089,-1.816 1.538,-3.251 3.297,-3.251 1.744,0 3.191,1.435 3.295,3.26 l 0,-0.014 3.851,46.496 L 3.295,-3.26 C 3.191,-1.431 1.744,0 0,0" /></g><g
           style="fill:#ffffff"
           transform="translate(187.6221,496.6469)"
           id="g48"><path
             id="path50"
             style="fill:#ffffff;fill-opacity:1;fill-rule:nonzero;stroke:none"
             d="m 0,0 c -1.975,0 -3.586,-1.596 -3.672,-3.635 0,-0.005 -3.182,-88.395 -3.182,-88.395 l 3.186,-46.203 c 0.082,-2.022 1.693,-3.618 3.668,-3.618 1.961,0 3.572,1.596 3.666,3.635 l -0.002,-0.026 3.602,46.212 -3.6,88.395 C 3.572,-1.596 1.961,0 0,0" /></g><g
           style="fill:#ffffff"
           transform="translate(205.6972,504.6332)"
           id="g52"><path
             id="path54"
             style="fill:#ffffff;fill-opacity:1;fill-rule:nonzero;stroke:none"
             d="m 0,0 c -2.189,0 -3.964,-1.764 -4.042,-4.013 0,-0.002 -2.963,-95.771 -2.963,-95.771 l 2.965,-45.728 c 0.076,-2.226 1.851,-3.987 4.04,-3.987 2.177,0 3.95,1.756 4.04,4.006 L 4.038,-145.52 7.384,-99.784 4.04,-4.011 C 3.95,-1.761 2.177,0 0,0" /></g><g
           style="fill:#ffffff"
           transform="translate(228.0537,503.8441)"
           id="g56"><path
             id="path58"
             style="fill:#ffffff;fill-opacity:1;fill-rule:nonzero;stroke:none"
             d="m 0,0 c -0.078,2.46 -2.014,4.385 -4.41,4.385 -2.404,0 -4.342,-1.928 -4.412,-4.388 L -11.566,-99 -8.82,-144.443 c 0.068,-2.433 2.006,-4.358 4.41,-4.358 2.395,0 4.33,1.924 4.409,4.377 L 3.092,-99.004 0,0 Z" /></g><g
           style="fill:#ffffff"
           transform="translate(228.0537,359.4232)"
           id="g60"><path
             id="path62"
             style="fill:#ffffff;fill-opacity:1;fill-rule:nonzero;stroke:none"
             d="M 0,0 C 0,-0.001 -0.001,-0.002 -0.001,-0.003 L -0.002,-0.026 0,0 Z" /></g><g
           style="fill:#ffffff"
           transform="translate(241.7305,506.0663)"
           id="g64"><path
             id="path66"
             style="fill:#ffffff;fill-opacity:1;fill-rule:nonzero;stroke:none"
             d="m 0,0 c -2.622,0 -4.724,-2.09 -4.785,-4.758 l -2.525,-96.473 2.528,-45.009 c 0.058,-2.643 2.16,-4.738 4.782,-4.738 2.611,0 4.71,2.095 4.781,4.761 l 0,-0.032 2.838,45.018 -2.838,96.478 C 4.71,-2.087 2.611,0 0,0" /></g><g
           style="fill:#ffffff"
           transform="translate(259.957,502.916)"
           id="g68"><path
             id="path70"
             style="fill:#ffffff;fill-opacity:1;fill-rule:nonzero;stroke:none"
             d="m 0,0 c -2.835,0 -5.101,-2.257 -5.155,-5.135 l -2.304,-92.951 2.306,-44.725 c 0.052,-2.849 2.318,-5.099 5.153,-5.099 2.827,0 5.091,2.25 5.153,5.131 l 0,-0.037 2.582,44.726 -2.582,92.964 C 5.091,-2.255 2.827,0 0,0" /></g><g
           style="fill:#ffffff"
           transform="translate(281.376,519.9974)"
           id="g72"><path
             id="path74"
             style="fill:#ffffff;fill-opacity:1;fill-rule:nonzero;stroke:none"
             d="m 0,0 c -0.878,0.595 -1.929,0.942 -3.053,0.942 -1.093,0 -2.114,-0.331 -2.976,-0.896 -1.504,-0.983 -2.519,-2.682 -2.549,-4.612 l -0.02,-1.043 -2.066,-109.536 c 0,-0.066 2.086,-44.464 2.086,-44.464 10e-4,-0.064 0.009,-0.126 0.012,-0.189 0.063,-1.241 0.534,-2.384 1.287,-3.285 1.017,-1.219 2.54,-2 4.226,-2 1.498,0 2.867,0.617 3.867,1.614 1,0.995 1.632,2.369 1.66,3.885 l 0.23,4.395 2.098,40.009 L 2.475,-4.561 C 2.441,-2.665 1.461,-0.99 0,0" /></g><g
           style="fill:#ffffff"
           transform="translate(283.8486,360.3842)"
           id="g76"><path
             id="path78"
             style="fill:#ffffff;fill-opacity:1;fill-rule:nonzero;stroke:none"
             d="M 0,0 0.001,0.013 0,-0.002 0.001,0.021 0.002,0.032 C 0.002,0.031 0.001,0.03 0.001,0.029 l 0,-0.015 L 0,0 Z" /></g><g
           style="fill:#ffffff"
           transform="translate(299.6113,530.4858)"
           id="g80"><path
             id="path82"
             style="fill:#ffffff;fill-opacity:1;fill-rule:nonzero;stroke:none"
             d="m 0,0 c -0.882,0.534 -1.907,0.847 -3,0.847 -1.406,0 -2.703,-0.505 -3.721,-1.346 -1.309,-1.08 -2.156,-2.713 -2.18,-4.536 l -0.013,-0.608 -2.405,-120.036 1.227,-22.189 1.192,-21.594 c 0.042,-3.196 2.686,-5.835 5.9,-5.835 3.203,0 5.848,2.639 5.893,5.881 l 0,-0.05 0,-0.001 2.625,43.788 0,0.001 L 2.893,-5.026 C 2.863,-2.896 1.702,-1.029 0,0" /></g><g
           style="fill:#ffffff"
           transform="translate(461.791,461.9139)"
           id="g84"><path
             id="path86"
             style="fill:#ffffff;fill-opacity:1;fill-rule:nonzero;stroke:none"
             d="m 0,0 c -7.338,0 -14.34,-1.488 -20.715,-4.158 -4.262,48.262 -44.734,86.124 -94.105,86.124 -12.082,0 -23.858,-2.375 -34.26,-6.399 -4.043,-1.567 -5.115,-3.171 -5.154,-6.297 l 0,-169.973 c 0.043,-3.278 2.586,-5.825 5.785,-6.145 0.137,-0.014 148.449,0 148.449,0 29.576,0 53.551,23.71 53.551,53.29 C 53.551,-23.977 29.576,0 0,0" /></g></g></g></g></svg>